<svg xmlns="http://www.w3.org/2000/svg" version="1.1" xmlns:xlink="http://www.w3.org/1999/xlink" xmlns:svgjs="http://svgjs.com/svgjs" width="100%" height="100%" viewBox="0 0 1000 600"><rect width="1000" height="600" x="0" y="0" fill="#9acfbf"/><g><circle r="166.66666666666666" cx="400.1105295817057" cy="422.33278361973237" fill="#d77ab2" transform="matrix(0.5354606133185033,0,0,0.5354606133185033,0,73.85743410545493)"/><path d="M377.16940826744803 347.3327845584887Q398.7018469912056 347.3327845584887 409.46806635308445 353.8764087940202Q420.2342857149633 360.42003302955175 420.2342857149633 369.89989890923204L420.2342857149633 369.89989890923204Q420.2342857149633 377.5341271840188 413.91437512850973 381.67282969196185Q407.56650033592143 385.7835679937701 397.30363668446813 385.7835679937701L397.30363668446813 385.7835679937701Q387.82377080478784 385.7835679937701 382.59446425758955 381.1694739815363Q377.3651577103913 376.5274157631678 377.3651577103913 369.67618526015406L377.3651577103913 369.67618526015406Q377.3651577103913 365.45359013380676 379.965828880923 360.839496121573L379.965828880923 360.839496121573Q373.925560355817 360.839496121573 369.898714672413 363.747773559587Q365.871868989009 366.656050997601 363.6626967043637 373.703030943558L363.6626967043637 373.703030943558Q362.4602358405695 378.14933971898336 362.4602358405695 381.9804359594441L362.4602358405695 381.9804359594441Q362.4602358405695 386.79027941462107 364.16605241478925 389.5307716158266Q365.871868989009 392.2432996108974 369.11571690064 392.2432996108974L369.11571690064 392.2432996108974L380.972540301774 392.2432996108974Q391.45911760230535 392.2432996108974 391.45911760230535 398.6750670218899L391.45911760230535 398.6750670218899Q391.45911760230535 399.48602899979767 391.03965451028415 401.1079529556132L391.03965451028415 401.1079529556132Q389.8371936464898 405.52629752490367 386.11795423056805 407.73546980954893Q382.3987148146463 409.9446420941942 374.932271776668 409.9446420941942L374.932271776668 409.9446420941942L368.892003251562 409.9446420941942L348.9814884836199 475.18513500656627Q348.3662759486554 477.6180209402895 348.3662759486554 479.4077301329135L348.3662759486554 479.4077301329135Q348.3662759486554 482.03636550958004 349.37298736950646 483.54643264085655Q350.3796987903574 485.05649977213307 352.19737218911615 486.45471007887056L352.19737218911615 486.45471007887056Q353.5955824958537 487.8808845917428 354.2107950308182 488.7757391880548Q354.7980433596479 489.69855799050157 354.40654447376147 491.09676829723907L354.40654447376147 491.09676829723907Q353.3998330529104 493.7254036739056 350.3796987903574 494.92786453769986Q347.3595645278044 496.13032540149413 341.1235465597551 496.13032540149413L341.1235465597551 496.13032540149413L295.2063200864954 496.13032540149413Q289.97701353929716 496.13032540149413 287.5720918117086 494.42450882727434Q285.1392058779854 492.7186922530546 285.95016785589314 489.89430743344485L285.95016785589314 489.89430743344485Q286.7611298338009 487.46142149972155 290.1727629822404 485.67171230709755L290.1727629822404 485.67171230709755Q293.1928972447934 484.049788351282 295.2063200864954 481.8406160666368Q297.21974292819743 479.6314437819915 298.6459174410697 474.79363612067976L298.6459174410697 474.79363612067976L314.3338370826645 423.2556042143353Q315.3405485035155 420.23546995178225 315.3405485035155 416.99162204015124L315.3405485035155 416.99162204015124Q315.3405485035155 412.9647763567472 313.63473192929575 410.6717114536977Q311.928915355076 408.3506823445134 308.4893180005017 405.52629752490367L308.4893180005017 405.52629752490367Q306.28014571585646 403.7086241261449 305.1895416766012 402.3943064378117Q304.0709734312112 401.1079529556132 304.0709734312112 399.2902795568544L304.0709734312112 399.2902795568544Q303.8752239882679 395.45918331639365 306.783501426282 393.8372593605781Q309.71974307043075 392.2432996108974 317.969183880182 392.2432996108974L317.969183880182 392.2432996108974L323.002740984437 392.2432996108974Q321.5765664715648 387.2097425066423 321.5765664715648 382.1761854023873L321.5765664715648 382.1761854023873Q321.5765664715648 377.1426282981323 323.39423987032353 371.68960810185604L323.39423987032353 371.68960810185604Q327.2253361107843 361.42674445040274 339.8092288714219 354.3797645044457Q352.39312163205943 347.3327845584887 377.16940826744803 347.3327845584887L377.16940826744803 347.3327845584887ZM427.5049793099983 463.1045979563542L449.4289169196424 387.4054919495856Q449.84838001166366 386.20303108579134 449.84838001166366 384.1896082440893L449.84838001166366 384.1896082440893Q449.84838001166366 380.97372453859305 448.14256343744387 378.96030169689107Q446.4087826570894 376.9468788551891 442.80140006570656 374.5139929214658L442.80140006570656 374.5139929214658Q439.78126580315364 372.3048206368205 438.46694811482035 370.682896681005Q437.15263042648706 369.08893693132427 437.76784296145155 366.879764646679L437.76784296145155 366.879764646679Q438.35509129028134 364.05537982706926 440.7879772240046 363.0486684062182Q443.1928989515931 362.0419569853672 448.42220549879136 362.0419569853672L448.42220549879136 362.0419569853672L505.6090070443554 362.0419569853672Q509.8316021707027 362.0419569853672 512.1526312798869 363.4401672921047Q514.4736603890713 364.86634180497697 514.4736603890713 367.0755140896223L514.4736603890713 367.0755140896223Q514.4736603890713 368.0822255104733 513.8584478541068 369.67618526015406L513.8584478541068 369.67618526015406Q513.2711995252769 371.10235977302625 512.1526312798869 372.1929638122815Q511.06202724063166 373.31153205767157 510.13920843818494 373.81488776809704Q509.2443538418729 374.3182434785225 508.82489074985165 374.70974236440907L508.82489074985165 374.70974236440907Q505.6090070443554 376.5274157631678 503.5955842026534 378.7365880478131Q501.58216136095143 380.97372453859305 500.1839510542139 385.58781855082685L500.1839510542139 385.58781855082685L480.4412215230803 455.2466560324894Q474.40095299797423 476.61130951943846 459.9154942201737 486.95806578929603Q445.4020712362383 497.33278626528835 422.24770855666526 497.33278626528835L422.24770855666526 497.33278626528835Q406.75553835801367 497.33278626528835 395.9893189961349 492.80258487145886Q385.2230996342561 488.2723834776293 379.7700794379798 480.63815520284254Q374.3450234478383 472.975962721921 374.3450234478383 463.915559934262L374.3450234478383 463.915559934262Q374.3450234478383 459.49721536497145 375.54748431163256 455.2466560324894L375.54748431163256 455.2466560324894Q378.176119688299 446.18625324483037 384.49603027475257 441.57215923259656Q390.84390506734087 436.93010101422806 398.7018469912056 436.93010101422806L398.7018469912056 436.93010101422806Q407.7622497788647 436.93010101422806 412.60005744017644 442.3831212105043Q417.4378651014882 447.8081772006459 417.4378651014882 456.2533674533404L417.4378651014882 456.2533674533404Q417.4378651014882 460.50392678582244 416.2074400315592 464.7265219121697L416.2074400315592 464.7265219121697Q413.8025183039707 473.17171216486423 407.1470372439002 477.19855784826825L407.1470372439002 477.19855784826825Q410.3908851555312 479.21198068997023 414.6134802818785 479.21198068997023L414.6134802818785 479.21198068997023Q418.8360754082258 479.21198068997023 422.05195911372203 474.989385563623Q425.2678428192183 470.76679043727574 427.5049793099983 463.1045979563542L427.5049793099983 463.1045979563542Z " fill="#f7fafc" transform="matrix(0.5354606133185033,0,0,0.5354606133185033,0,73.85743410545493)"/><path d="M721.804618112741 349.0652394056939Q738.6905826483268 349.0652394056939 747.1335649161196 354.19681823858616Q755.5765471839125 359.32839707147843 755.5765471839125 366.7626074319506L755.5765471839125 366.7626074319506Q755.5765471839125 372.7494494036583 750.6204069435977 375.99506336634226Q745.6423368792107 379.2187475049541 737.5940914447173 379.2187475049541L737.5940914447173 379.2187475049541Q730.1598810842451 379.2187475049541 726.0590039827457 375.6003265330429Q721.9581268812464 371.95997573705944 721.9581268812464 366.5871688393731L721.9581268812464 366.5871688393731Q721.9581268812464 363.2757654044725 723.99760051996 359.6573444325613L723.99760051996 359.6573444325613Q719.2607585203671 359.6573444325613 716.1028638539718 361.938046136069Q712.9449691875766 364.2187478395766 711.2125130858736 369.74506350576837L711.2125130858736 369.74506350576837Q710.2695306507695 373.23190553324645 710.2695306507695 376.23629143113635L710.2695306507695 376.23629143113635Q710.2695306507695 380.0082211715529 711.607249919173 382.15734393062746Q712.9449691875766 384.2845368656298 715.4888287799505 384.2845368656298L715.4888287799505 384.2845368656298L724.7870741865587 384.2845368656298Q733.0107582136297 384.2845368656298 733.0107582136297 389.32839640223335L733.0107582136297 389.32839640223335Q733.0107582136297 389.9643613003268 732.6818108525468 391.2362910965138L732.6818108525468 391.2362910965138Q731.7388284174427 394.7012032999197 728.8221618158416 396.43365940162266Q725.9054952142404 398.1661155033256 720.0502321869659 398.1661155033256L720.0502321869659 398.1661155033256L715.313390187373 398.1661155033256L699.6993554479742 449.3283950637431Q699.216899318386 451.23628975802353 699.216899318386 452.63979849864364L699.216899318386 452.63979849864364Q699.216899318386 454.70120196142943 700.006372984985 455.8854124613277Q700.7958466515837 457.0696229612259 702.221285216276 458.16611416483534L702.221285216276 458.16611416483534Q703.3177764198855 459.284535192517 703.8002325494737 459.9862895628271Q704.2607588549896 460.7099737572093 703.953741317979 461.80646496081874L703.953741317979 461.80646496081874Q703.1642676513801 463.8678684236046 700.7958466515837 464.8108508587087Q698.4274256517873 465.7538332938128 693.5370748836891 465.7538332938128L693.5370748836891 465.7538332938128L657.5283037571544 465.7538332938128Q653.427426655655 465.7538332938128 651.5414617854467 464.4161140254093Q649.6335670911662 463.07839475700575 650.2695319892597 460.86348252571463L650.2695319892597 460.86348252571463Q650.9054968873533 458.9555878314342 653.5809354241603 457.55207909081406L653.5809354241603 457.55207909081406Q655.9493564239567 456.2801492946271 657.5283037571544 454.54769319292416Q659.107251090352 452.8152370912212 660.2256721180337 449.0213775267324L660.2256721180337 449.0213775267324L672.5283034225318 408.60471176168767Q673.3177770891306 406.2362907618912 673.3177770891306 403.6924311695173L673.3177770891306 403.6924311695173Q673.3177770891306 400.534536503122 671.9800578207271 398.73629092920254Q670.6423385523235 396.91611553121083 667.9449701914442 394.7012032999197L667.9449701914442 394.7012032999197Q666.2125140897414 393.2757647352274 665.357250950926 392.2450630038345Q664.4800579880383 391.2362910965138 664.4800579880383 389.81085253182147L664.4800579880383 389.81085253182147Q664.326549219533 386.80646663393156 666.6072509230407 385.5345368377446Q668.9098824506206 384.2845368656298 675.3791805519164 384.2845368656298L675.3791805519164 384.2845368656298L679.3265488849105 384.2845368656298Q678.2081278572288 380.33716853263576 678.2081278572288 376.3898001996417L678.2081278572288 376.3898001996417Q678.2081278572288 372.4424318666476 679.633566421921 368.1661161725707L679.633566421921 368.1661161725707Q682.637952319811 360.1178707380773 692.5063731522962 354.5915550718856Q702.3747939847814 349.0652394056939 721.804618112741 349.0652394056939L721.804618112741 349.0652394056939ZM779.4361957744543 382.22313340284404Q797.594090106227 382.22313340284404 808.4712828460329 388.93365956893393Q819.370405409911 395.6441857350238 819.370405409911 409.3941854282865L819.370405409911 409.3941854282865Q819.370405409911 414.59155373339536 817.4844405397027 421.23629042726867L817.4844405397027 421.23629042726867L811.0151424384069 443.0126057309526Q810.8397038458294 443.64857062904605 810.8397038458294 444.5915530641502L810.8397038458294 444.5915530641502Q810.8397038458294 447.11348283245195 812.9011073086151 447.11348283245195L812.9011073086151 447.11348283245195Q814.7870721788233 447.11348283245195 816.1467212712992 445.4687460270378Q817.4844405397027 443.80207939755144 817.9449668452187 443.80207939755144L817.9449668452187 443.80207939755144Q818.7344405118174 443.80207939755144 819.3046159376944 444.92050042523306Q819.8528615394991 446.0169916288425 819.8528615394991 447.44243019353485L819.8528615394991 447.44243019353485Q820.0063703080044 451.69681606353953 816.6072475768151 456.1266405261218Q813.2081248456258 460.5345351646318 807.5283004109288 463.3854122940164Q801.8484759762317 466.236289423401 795.0502305138531 466.236289423401L795.0502305138531 466.236289423401Q786.8484763108543 466.236289423401 781.015143107652 463.2319035255111Q775.1598800803774 460.2275176276211 772.9449678490863 454.3941844244188L772.9449678490863 454.3941844244188Q768.2081258494934 460.0740088591158 761.7388277481977 463.14418422922233Q755.2695296469018 466.236289423401 747.8572491105018 466.236289423401L747.8572491105018 466.236289423401Q739.4800563149255 466.236289423401 733.8002318802286 462.990675460717Q728.1204074455316 459.745061498033 725.3572496124357 454.6134826651407Q722.5940917793398 449.4819038322484 722.5940917793398 443.80207939755144L722.5940917793398 443.80207939755144Q722.5940917793398 441.28014962924965 723.0546180848559 438.9117286294532L723.0546180848559 438.9117286294532Q725.5765478531576 428.01260606557514 734.0414599450227 422.48629039938345Q742.4844422128155 416.95997473319176 754.1730384432924 416.95997473319176L754.1730384432924 416.95997473319176Q767.2651434143893 416.95997473319176 779.8967220799703 421.06085183469116L779.8967220799703 421.06085183469116L783.8440904129644 410.6441854004013Q785.9054938757502 404.02137853060015 785.9054938757502 400.38102773461674L785.9054938757502 400.38102773461674Q785.7519851072449 396.58716817012794 783.3835641074484 394.7012032999197Q781.015143107652 392.8152384297114 776.1028625154815 392.8152384297114L776.1028625154815 392.8152384297114Q777.0677747746579 395.33716819801316 777.0677747746579 398.0126067348203L777.0677747746579 398.0126067348203Q777.0677747746579 403.8678697620948 772.6379503120756 408.1222556320995Q768.2081258494934 412.37664150210423 760.0063716464947 412.37664150210423L760.0063716464947 412.37664150210423Q752.2651437490119 412.37664150210423 747.9230385827184 408.9994485949871Q743.580933416425 405.60032586379776 743.580933416425 400.534536503122L743.580933416425 400.534536503122Q743.580933416425 392.6397998371339 752.4186525175172 387.44243153202507Q761.2783014426816 382.22313340284404 779.4361957744543 382.22313340284404L779.4361957744543 382.22313340284404ZM770.5765468492899 430.07400952836093Q766.1686522107799 430.07400952836093 763.405494377684 433.47313225955025Q760.6423365445881 436.8503251666674 760.6423365445881 440.7976934996615L760.6423365445881 440.7976934996615Q760.6423365445881 443.34155309203544 761.8265470444863 444.92050042523306Q763.0107575443847 446.4994477584307 765.2256697756757 446.4994477584307L765.2256697756757 446.4994477584307Q767.2651434143893 446.4994477584307 769.7212837104745 444.8327811289443Q772.1554941824875 443.16611449945793 773.2739152101692 439.85471106455736L773.2739152101692 439.85471106455736L776.5853186450697 430.53453583387693Q773.9098801082627 430.07400952836093 770.5765468492899 430.07400952836093L770.5765468492899 430.07400952836093ZM933.6905782982335 412.8590976316924L924.0633855305423 443.9555881660567Q923.7344381694595 444.5915530641502 923.7344381694595 445.8634828603372L923.7344381694595 445.8634828603372Q923.7344381694595 446.9599740639467 924.3046135953365 447.5959389620401Q924.8528591971412 448.2319038601336 925.7958416322454 448.2319038601336L925.7958416322454 448.2319038601336Q927.6818065024536 448.2319038601336 929.0414555949293 446.56523723064726Q930.3791748633329 444.92050042523306 930.8397011688488 444.92050042523306L930.8397011688488 444.92050042523306Q931.6291748354477 444.92050042523306 932.1116309650358 445.92927233255375Q932.594087094624 446.9599740639467 932.594087094624 448.38541262863896L932.594087094624 448.38541262863896Q932.7475958631294 452.9687458597265 929.589701196734 457.31085102602Q926.4318065303388 461.65295619231347 920.3572452623424 464.4161140254093Q914.2607541702738 467.1792718585051 905.7519824302644 467.1792718585051L905.7519824302644 467.1792718585051Q895.3133861719023 467.1792718585051 889.1730354316893 462.3547105626235Q883.0107548674041 457.55207909081406 882.8572460988987 449.4819038322484L882.8572460988987 449.4819038322484Q882.8572460988987 443.64857062904605 885.6861934042112 436.38979886115146L885.6861934042112 436.38979886115146L894.3704037367982 413.6485712982912Q895.159877403397 411.5871678355054 895.159877403397 410.3371678633906L895.159877403397 410.3371678633906Q895.159877403397 408.2757644006048 893.8221581349934 407.09155390070663Q892.4844388665899 405.9073434008084 890.5765441723095 405.9073434008084L890.5765441723095 405.9073434008084Q887.1116319689036 405.9073434008084 883.9537373025082 409.1529573634924Q880.795842636113 412.37664150210423 879.3704040714207 417.1134835016971L879.3704040714207 417.1134835016971L869.5897025352243 449.3283950637431Q868.9537376371309 451.060851165446 868.9537376371309 452.63979849864364L868.9537376371309 452.63979849864364Q868.9537376371309 454.54769319292416 869.7432113037296 455.73190369282236Q870.5326849703284 456.91611419272056 871.9581235350207 458.16611416483534L871.9581235350207 458.16611416483534Q873.0546147386302 459.1310264240117 873.5370708682183 459.9205000906105Q873.9975971737343 460.7099737572093 873.6905796367237 461.80646496081874L873.6905796367237 461.80646496081874Q873.0546147386302 463.8678684236046 870.6861937388337 464.8108508587087Q868.3177727390373 465.7538332938128 863.2739132024337 465.7538332938128L863.2739132024337 465.7538332938128L827.2651420758991 465.7538332938128Q823.1642649743997 465.7538332938128 821.3440895764079 464.4161140254093Q819.5239141784162 463.07839475700575 820.0063703080044 460.86348252571463L820.0063703080044 460.86348252571463Q820.642335206098 458.9555878314342 823.317773742905 457.55207909081406L823.317773742905 457.55207909081406Q825.6861947427014 456.2801492946271 827.2651420758991 454.54769319292416Q828.8440894090967 452.8152370912212 829.9625104367784 449.0213775267324L829.9625104367784 449.0213775267324L843.9975978429794 403.38541363250664Q844.3265452040623 402.5959399659078 844.3265452040623 401.1705014012155L844.3265452040623 401.1705014012155Q844.3265452040623 399.43804529951257 843.60286100968 398.4950628644084Q842.90110663937 397.5520804293043 841.3221593061724 396.126641864612L841.3221593061724 396.126641864612Q839.7432119729748 394.85471206842504 839.1072470748813 393.9117296333209Q838.4712821767878 392.96874719821676 838.953738306376 391.38979986501914L838.953738306376 391.38979986501914Q839.8967207414801 387.7494490690357 848.9098784351498 384.98629123593986Q857.9011063047474 382.22313340284404 867.6818078409439 382.22313340284404L867.6818078409439 382.22313340284404Q875.5765445069319 382.22313340284404 880.1598777380195 386.5652385691375Q884.743210969107 390.90734373543097 884.2607548395189 398.6485716329138L884.2607548395189 398.6485716329138Q890.751982764887 389.32839640223335 898.0107545327816 385.7757649025387Q905.2695263006763 382.22313340284404 913.8002278647579 382.22313340284404L913.8002278647579 382.22313340284404Q923.427420632449 382.22313340284404 929.34847313194 388.0783964301185Q935.2695256314311 393.9117296333209 935.2695256314311 403.2319048640013L935.2695256314311 403.2319048640013Q935.2695256314311 408.1222556320995 933.6905782982335 412.8590976316924L933.6905782982335 412.8590976316924ZM1046.7388213903691 412.8590976316924L1037.111628622678 443.9555881660567Q1036.8046110856676 444.5915530641502 1036.8046110856676 445.8634828603372L1036.8046110856676 445.8634828603372Q1036.8046110856676 446.9599740639467 1037.352856687472 447.5959389620401Q1037.9011022892769 448.2319038601336 1038.844084724381 448.2319038601336L1038.844084724381 448.2319038601336Q1040.7519794186614 448.2319038601336 1042.0896986870648 446.56523723064726Q1043.4274179554686 444.92050042523306 1043.9098740850568 444.92050042523306L1043.9098740850568 444.92050042523306Q1044.6993477516553 444.92050042523306 1045.1598740571712 445.92927233255375Q1045.6423301867594 446.9599740639467 1045.6423301867594 448.38541262863896L1045.6423301867594 448.38541262863896Q1045.795838955265 452.9687458597265 1042.6379442888697 457.31085102602Q1039.4800496224743 461.65295619231347 1033.4054883544782 464.4161140254093Q1027.3309270864816 467.1792718585051 1018.8002255223998 467.1792718585051L1018.8002255223998 467.1792718585051Q1008.38355908811 467.1792718585051 1002.2212785238248 462.3547105626235Q996.0589979595397 457.55207909081406 995.9054891910343 449.4819038322484L995.9054891910343 449.4819038322484Q995.9054891910343 443.64857062904605 998.7344364963467 436.38979886115146L998.7344364963467 436.38979886115146L1007.4186468289338 413.6485712982912Q1008.2081204955325 411.5871678355054 1008.2081204955325 410.3371678633906L1008.2081204955325 410.3371678633906Q1008.2081204955325 408.2757644006048 1006.8704012271289 407.09155390070663Q1005.5326819587253 405.9073434008084 1003.6467170885171 405.9073434008084L1003.6467170885171 405.9073434008084Q1000.159875061039 405.9073434008084 997.0019803946439 409.1529573634924Q993.8440857282485 412.37664150210423 992.4186471635562 417.1134835016971L992.4186471635562 417.1134835016971L982.6379456273598 449.3283950637431Q982.0019807292663 451.060851165446 982.0019807292663 452.63979849864364L982.0019807292663 452.63979849864364Q982.0019807292663 454.54769319292416 982.7914543958651 455.73190369282236Q983.580928062464 456.91611419272056 985.0063666271562 458.16611416483534L985.0063666271562 458.16611416483534Q986.1028578307657 459.1310264240117 986.5853139603539 459.9205000906105Q987.0677700899421 460.7099737572093 986.7388227288593 461.80646496081874L986.7388227288593 461.80646496081874Q986.1028578307657 463.8678684236046 983.7344368309693 464.8108508587087Q981.366015831173 465.7538332938128 976.3221562945694 465.7538332938128L976.3221562945694 465.7538332938128L940.3133851680346 465.7538332938128Q936.2125080665353 465.7538332938128 934.3923326685435 464.4161140254093Q932.594087094624 463.07839475700575 933.0546134001399 460.86348252571463L933.0546134001399 460.86348252571463Q933.6905782982335 458.9555878314342 936.3660168350405 457.55207909081406L936.3660168350405 457.55207909081406Q938.7344378348371 456.2801492946271 940.3133851680346 454.54769319292416Q941.8923325012322 452.8152370912212 943.0107535289139 449.0213775267324L943.0107535289139 449.0213775267324L957.0677707591872 403.38541363250664Q957.3747882961978 402.5959399659078 957.3747882961978 401.1705014012155L957.3747882961978 401.1705014012155Q957.3747882961978 399.43804529951257 956.6730339258878 398.4950628644084Q955.9493497315055 397.5520804293043 954.370402398308 396.126641864612L954.370402398308 396.126641864612Q952.7914550651103 394.85471206842504 952.1554901670168 393.9117296333209Q951.5414550929954 392.96874719821676 952.0019813985114 391.38979986501914L952.0019813985114 391.38979986501914Q952.9449638336156 387.7494490690357 961.9581215272854 384.98629123593986Q970.949349396883 382.22313340284404 980.7519807571516 382.22313340284404L980.7519807571516 382.22313340284404Q988.6467174231398 382.22313340284404 993.2081208301549 386.5652385691375Q997.7914540612426 390.90734373543097 997.3309277557266 398.6485716329138L997.3309277557266 398.6485716329138Q1003.8002258570225 389.32839640223335 1011.0589976249171 385.7757649025387Q1018.3177693928118 382.22313340284404 1026.8484709568934 382.22313340284404L1026.8484709568934 382.22313340284404Q1036.4756637245846 382.22313340284404 1042.3967162240756 388.0783964301185Q1048.3177687235666 393.9117296333209 1048.3177687235666 403.2319048640013L1048.3177687235666 403.2319048640013Q1048.3177687235666 408.1222556320995 1046.7388213903691 412.8590976316924L1046.7388213903691 412.8590976316924ZM1136.1028544845403 382.22313340284404Q1143.0546087154244 382.22313340284404 1147.2432051132123 387.8371683653245Q1151.4318015110007 393.4292735037327 1151.4318015110007 403.078396095496L1151.4318015110007 403.078396095496Q1151.4318015110007 411.43365906700006 1148.4274156131105 421.06085183469116L1148.4274156131105 421.06085183469116Q1142.594082409908 440.4906759626508 1129.721275679533 457.7055878593194Q1116.848468949158 474.9204997559879 1100.1818026542942 485.3371661902778Q1083.5370661835027 495.75383262456774 1066.9581191849275 495.75383262456774L1066.9581191849275 495.75383262456774Q1058.7344351578568 495.75383262456774 1052.8133826583653 492.9029554951831Q1046.8923301588743 490.0740081898707 1043.8221547887679 485.3371661902778Q1040.7519794186614 480.60032419068494 1040.7519794186614 475.2275172929986L1040.7519794186614 475.2275172929986Q1040.7519794186614 472.85909629320213 1041.5414530852604 470.00821916381756L1041.5414530852604 470.00821916381756Q1042.9449618258805 465.60032452530754 1046.2782950848532 463.2319035255111Q1049.5896985197537 460.86348252571463 1054.1730317508413 460.86348252571463L1054.1730317508413 460.86348252571463Q1061.4318035187357 460.86348252571463 1066.08092622204 465.84155259010157Q1070.7519787494161 470.79769283041634 1072.001978721531 479.48190316300327L1072.001978721531 479.48190316300327Q1082.1116276188104 479.0213768574873 1090.642329182892 470.79769283041634L1090.642329182892 470.79769283041634Q1082.5940837483986 469.3941840897962 1078.712504887621 465.35909646051346Q1074.8528558509156 461.32400883123057 1073.4274172862233 452.8152370912212L1073.4274172862233 452.8152370912212L1067.111627953433 414.13102742787936Q1066.629171823845 411.12664152998946 1065.7739086850293 409.9424310300912Q1064.8967157221418 408.758220530193 1063.4712771574495 408.758220530193L1063.4712771574495 408.758220530193Q1062.3747859538398 408.758220530193 1060.8835579169313 409.85471173380245Q1059.37040005595 410.9731327614841 1058.7344351578568 410.9731327614841L1058.7344351578568 410.9731327614841Q1057.4844351857419 410.9731327614841 1057.4844351857419 408.2757644006048L1057.4844351857419 408.2757644006048Q1057.4844351857419 406.0608521693137 1058.2739088523408 403.538922401012L1058.2739088523408 403.538922401012Q1061.1028561576532 394.5476945314144 1068.8440840551357 388.29769467084043Q1076.5853119526187 382.0696246343387 1086.8484696184032 382.0696246343387L1086.8484696184032 382.0696246343387Q1096.9581185156826 382.0696246343387 1101.7607499874916 388.0783964301185Q1106.5853112833734 394.0652384018262 1108.0107498480656 406.5433082989019L1108.0107498480656 406.5433082989019L1112.747591847659 441.28014962924965Q1113.2081181531748 445.2275179622437 1115.5765391529712 445.2275179622437L1115.5765391529712 445.2275179622437Q1118.4274162823558 445.2275179622437 1122.2212758468445 440.09593912935145Q1126.0151354113332 434.9643602964591 1129.6335563832445 425.49067629727335L1129.6335563832445 425.49067629727335Q1124.8967143836517 421.23629042726867 1122.3747846153497 415.709974761077Q1119.852854847048 410.1836590948853 1119.852854847048 403.8678697620948L1119.852854847048 403.8678697620948Q1119.852854847048 398.9555891699244 1121.102854819163 395.0082208369304L1121.102854819163 395.0082208369304Q1123.0107495134434 388.69243150413985 1127.023907318654 385.46874736552803Q1131.0589949479368 382.22313340284404 1136.1028544845403 382.22313340284404L1136.1028544845403 382.22313340284404ZM1188.5370638411446 439.85471106455736L1205.7519757378132 380.4906773011411Q1206.058993274824 379.5476948660369 1206.058993274824 377.9687475328393L1206.058993274824 377.9687475328393Q1206.058993274824 375.4468177645375 1204.7212740064201 373.86787043133995Q1203.3835547380168 372.2889230981423 1200.5326776086322 370.3810284038618L1200.5326776086322 370.3810284038618Q1198.1642566088358 368.64857230215887 1197.1335548774427 367.3766425059719Q1196.1028531460502 366.1266425338571 1196.5853092756383 364.3941864321542L1196.5853092756383 364.3941864321542Q1197.067765405226 362.17927420086306 1198.9537302754347 361.3898005342642Q1200.839695145643 360.60032686766544 1204.9625020712142 360.60032686766544L1204.9625020712142 360.60032686766544L1249.7870624747693 360.60032686766544Q1253.120395733742 360.60032686766544 1254.9186413076618 361.6968180712749Q1256.7388167056533 362.81523909895657 1256.7388167056533 364.5476952006595L1256.7388167056533 364.5476952006595Q1256.7388167056533 365.3371688672583 1256.2782904001374 366.5871688393731L1256.2782904001374 366.5871688393731Q1255.7958342705492 367.70558986705475 1254.9186413076618 368.5608530058701Q1254.0633781688462 369.4380459687577 1253.339693974464 369.83278280205707Q1252.6379396041539 370.2275196353565 1252.330922067143 370.53453717236715L1252.330922067143 370.53453717236715Q1249.7870624747693 371.95997573705944 1248.2081151415719 373.69243183876245Q1246.629167808374 375.4468177645375 1245.5326766047647 379.06523873644875L1245.5326766047647 379.06523873644875L1230.0502208097987 433.69243050027217Q1225.313378810206 450.44681609142475 1213.953729940812 458.56085099813475Q1202.5940810714178 466.696815728917 1184.436186739645 466.696815728917L1184.436186739645 466.696815728917Q1172.26513437958 466.696815728917 1163.8221521117875 463.14418422922233Q1155.3791698439945 459.5915527295277 1151.1028541499177 453.60471075782Q1146.848468279913 447.5959389620401 1146.848468279913 440.4906759626508L1146.848468279913 440.4906759626508Q1146.848468279913 437.0257637592449 1147.7914507150172 433.69243050027217L1147.7914507150172 433.69243050027217Q1149.8528541778028 426.58716750088286 1154.8309242421897 422.9687465289716Q1159.7870644825048 419.3283957329882 1165.9493450467899 419.3283957329882L1165.9493450467899 419.3283957329882Q1173.054608046179 419.3283957329882 1176.8484676106677 423.6047114270651Q1180.6423271751564 427.8590972970698 1180.6423271751564 434.481904166871L1180.6423271751564 434.481904166871Q1180.6423271751564 437.81523742584375 1179.6993447400523 441.1266408607443L1179.6993447400523 441.1266408607443Q1177.7914500457719 447.74944773054546 1172.5940817406631 450.90734239694075L1172.5940817406631 450.90734239694075Q1175.1160115089647 452.4862897301383 1178.4274149438652 452.4862897301383L1178.4274149438652 452.4862897301383Q1181.7388183787662 452.4862897301383 1184.2607481470677 449.1748862952378Q1186.8046077394415 445.8634828603372 1188.5370638411446 439.85471106455736L1188.5370638411446 439.85471106455736ZM1284.5239038051172 382.22313340284404Q1293.690570267292 382.22313340284404 1297.9449561372967 385.7099754303221Q1302.221271831374 389.174887633728 1302.221271831374 395.1836594295079L1302.221271831374 395.1836594295079Q1302.221271831374 398.80208040141906 1301.102850803692 402.1134838363197L1301.102850803692 402.1134838363197L1286.5853072679029 449.3283950637431Q1286.1028511383147 451.23628975802353 1286.1028511383147 452.63979849864364L1286.1028511383147 452.63979849864364Q1286.1028511383147 454.70120196142943 1286.8923248049136 455.8854124613277Q1287.6817984715121 457.0696229612259 1289.1072370362044 458.16611416483534L1289.1072370362044 458.16611416483534Q1290.2256580638864 459.284535192517 1290.6861843694023 459.9862895628271Q1291.1686404989905 460.7099737572093 1290.8396931379075 461.80646496081874L1290.8396931379075 461.80646496081874Q1290.050219471309 463.8678684236046 1287.6817984715121 464.8108508587087Q1285.3133774717157 465.7538332938128 1280.4230267036178 465.7538332938128L1280.4230267036178 465.7538332938128L1244.436185401155 465.7538332938128Q1240.3133784755832 465.7538332938128 1238.427413605375 464.4161140254093Q1236.5414487351668 463.07839475700575 1237.1554838091884 460.86348252571463L1237.1554838091884 460.86348252571463Q1237.7914487072817 458.9555878314342 1240.488817068161 457.55207909081406L1240.488817068161 457.55207909081406Q1242.8572380679575 456.2801492946271 1244.436185401155 454.54769319292416Q1246.0151327343528 452.8152370912212 1247.1116239379621 449.0213775267324L1247.1116239379621 449.0213775267324L1260.8396938071528 403.38541363250664Q1261.322149936741 401.95997506781436 1261.322149936741 401.0169926327102L1261.322149936741 401.0169926327102Q1261.322149936741 399.28453653100723 1260.532676270142 398.25383479961437Q1259.743202603543 397.22313306822144 1258.1642552703456 396.126641864612L1258.1642552703456 396.126641864612Q1256.5853079371482 394.85471206842504 1255.9493430390544 393.9117296333209Q1255.313378140961 392.96874719821676 1255.7958342705492 391.38979986501914L1255.7958342705492 391.38979986501914Q1256.7388167056533 387.7494490690357 1265.751974399323 384.98629123593986Q1274.7432022689209 382.22313340284404 1284.5239038051172 382.22313340284404L1284.5239038051172 382.22313340284404ZM1295.1160088319843 347.33278330399094Q1301.2782893962694 347.33278330399094 1305.379166497769 351.36787093327376Q1309.4800435992684 355.38102873848436 1309.4800435992684 361.2362917657589L1309.4800435992684 361.2362917657589Q1309.4800435992684 365.3371688672583 1307.352850664266 369.2845372002524Q1305.2256577292637 373.23190553324645 1301.3440788684861 375.6661160052594Q1297.4844298317807 378.12225630134463 1292.747587832188 378.12225630134463L1292.747587832188 378.12225630134463Q1286.738816036408 378.12225630134463 1282.7256582311975 374.0871686720618Q1278.6905706019147 370.07401086685115 1278.5370618334096 364.06523907107135L1278.5370618334096 364.06523907107135Q1278.5370618334096 360.1178707380773 1280.576535472123 356.25822170137195Q1282.637938934909 352.37664284059446 1286.4317984993977 349.8547130722927Q1290.2256580638864 347.33278330399094 1295.1160088319843 347.33278330399094L1295.1160088319843 347.33278330399094ZM1357.6379372617957 382.22313340284404Q1375.795831593569 382.22313340284404 1386.6949541574468 388.93365956893393Q1397.5940767213247 395.6441857350238 1397.5940767213247 409.3941854282865L1397.5940767213247 409.3941854282865Q1397.5940767213247 414.59155373339536 1395.6861820270442 421.23629042726867L1395.6861820270442 421.23629042726867L1389.2168839257488 443.0126057309526Q1389.0633751572432 443.64857062904605 1389.0633751572432 444.5915530641502L1389.0633751572432 444.5915530641502Q1389.0633751572432 447.11348283245195 1391.1028487959566 447.11348283245195L1391.1028487959566 447.11348283245195Q1393.010743490237 447.11348283245195 1394.3484627586408 445.4687460270378Q1395.6861820270442 443.80207939755144 1396.1686381566324 443.80207939755144L1396.1686381566324 443.80207939755144Q1396.9581118232313 443.80207939755144 1397.5063574250362 444.92050042523306Q1398.0546030268406 446.0169916288425 1398.0546030268406 447.44243019353485L1398.0546030268406 447.44243019353485Q1398.2081117953462 451.69681606353953 1394.830918888229 456.1266405261218Q1391.4317961570396 460.5345351646318 1385.7519717223427 463.3854122940164Q1380.0502174635735 466.236289423401 1373.2739018252669 466.236289423401L1373.2739018252669 466.236289423401Q1365.0502177981962 466.236289423401 1359.2168845949936 463.2319035255111Q1353.3835513917911 460.2275176276211 1351.1686391605003 454.3941844244188L1351.1686391605003 454.3941844244188Q1346.431797160907 460.0740088591158 1339.9624990596112 463.14418422922233Q1333.4712711342436 466.236289423401 1326.0589905978436 466.236289423401L1326.0589905978436 466.236289423401Q1317.6817978022673 466.236289423401 1312.0019733675704 462.990675460717Q1306.322148932873 459.745061498033 1303.5589910997774 454.6134826651407Q1300.7958332666817 449.4819038322484 1300.7958332666817 443.80207939755144L1300.7958332666817 443.80207939755144Q1300.7958332666817 441.28014962924965 1301.2782893962694 438.9117286294532L1301.2782893962694 438.9117286294532Q1303.8002191645714 428.01260606557514 1312.2432014323645 422.48629039938345Q1320.686183700157 416.95997473319176 1332.3747799306338 416.95997473319176L1332.3747799306338 416.95997473319176Q1345.488814725803 416.95997473319176 1358.1203933913844 421.06085183469116L1358.1203933913844 421.06085183469116L1362.0677617243782 410.6441854004013Q1364.1072353630916 404.02137853060015 1364.1072353630916 400.38102773461674L1364.1072353630916 400.38102773461674Q1363.9537265945864 396.58716817012794 1361.58530559479 394.7012032999197Q1359.2168845949936 392.8152384297114 1354.3265338268952 392.8152384297114L1354.3265338268952 392.8152384297114Q1355.2695162619998 395.33716819801316 1355.2695162619998 398.0126067348203L1355.2695162619998 398.0126067348203Q1355.2695162619998 403.8678697620948 1350.8396917994173 408.1222556320995Q1346.431797160907 412.37664150210423 1338.2081131338364 412.37664150210423L1338.2081131338364 412.37664150210423Q1330.4888150604256 412.37664150210423 1326.146709894132 408.9994485949871Q1321.804604727839 405.60032586379776 1321.804604727839 400.534536503122L1321.804604727839 400.534536503122Q1321.804604727839 392.6397998371339 1330.6423238289312 387.44243153202507Q1339.4800429300235 382.22313340284404 1357.6379372617957 382.22313340284404L1357.6379372617957 382.22313340284404ZM1348.800218160704 430.07400952836093Q1344.3703936981215 430.07400952836093 1341.6072358650258 433.47313225955025Q1338.8440780319297 436.8503251666674 1338.8440780319297 440.7976934996615L1338.8440780319297 440.7976934996615Q1338.8440780319297 443.34155309203544 1340.028288531828 444.92050042523306Q1341.212499031726 446.4994477584307 1343.4274112630173 446.4994477584307L1343.4274112630173 446.4994477584307Q1345.488814725803 446.4994477584307 1347.923025197816 444.8327811289443Q1350.3791654939014 443.16611449945793 1351.4756566975107 439.85471106455736L1351.4756566975107 439.85471106455736L1354.7870601324112 430.53453583387693Q1352.1116215956044 430.07400952836093 1348.800218160704 430.07400952836093L1348.800218160704 430.07400952836093ZM1511.8923197855752 412.8590976316924L1502.265127017884 443.9555881660567Q1501.9581094808732 444.5915530641502 1501.9581094808732 445.8634828603372L1501.9581094808732 445.8634828603372Q1501.9581094808732 446.9599740639467 1502.506355082678 447.5959389620401Q1503.054600684483 448.2319038601336 1503.997583119587 448.2319038601336L1503.997583119587 448.2319038601336Q1505.9054778138675 448.2319038601336 1507.2431970822713 446.56523723064726Q1508.5809163506747 444.92050042523306 1509.0633724802628 444.92050042523306L1509.0633724802628 444.92050042523306Q1509.8528461468613 444.92050042523306 1510.3133724523777 445.92927233255375Q1510.7958285819655 446.9599740639467 1510.7958285819655 448.38541262863896L1510.7958285819655 448.38541262863896Q1510.949337350471 452.9687458597265 1507.7914426840757 457.31085102602Q1504.6335480176804 461.65295619231347 1498.5589867496838 464.4161140254093Q1492.4844254816876 467.1792718585051 1483.953723917606 467.1792718585051L1483.953723917606 467.1792718585051Q1473.537057483316 467.1792718585051 1467.3747769190309 462.3547105626235Q1461.2124963547458 457.55207909081406 1461.0589875862406 449.4819038322484L1461.0589875862406 449.4819038322484Q1461.0589875862406 443.64857062904605 1463.9098647156252 436.38979886115146L1463.9098647156252 436.38979886115146L1472.5940750482118 413.6485712982912Q1473.3835487148108 411.5871678355054 1473.3835487148108 410.3371678633906L1473.3835487148108 410.3371678633906Q1473.3835487148108 408.2757644006048 1472.0238996223352 407.09155390070663Q1470.6861803539314 405.9073434008084 1468.8002154837232 405.9073434008084L1468.8002154837232 405.9073434008084Q1465.3133734562452 405.9073434008084 1462.15547878985 409.1529573634924Q1458.9975841234545 412.37664150210423 1457.5940753828345 417.1134835016971L1457.5940753828345 417.1134835016971L1447.7914440225659 449.3283950637431Q1447.1554791244725 451.060851165446 1447.1554791244725 452.63979849864364L1447.1554791244725 452.63979849864364Q1447.1554791244725 454.54769319292416 1447.944952791071 455.73190369282236Q1448.73442645767 456.91611419272056 1450.1598650223623 458.16611416483534L1450.1598650223623 458.16611416483534Q1451.2782860500438 459.1310264240117 1451.7388123555602 459.9205000906105Q1452.2212684851484 460.7099737572093 1451.8923211240653 461.80646496081874L1451.8923211240653 461.80646496081874Q1451.2782860500438 463.8678684236046 1448.9098650502478 464.8108508587087Q1446.541444050451 465.7538332938128 1441.4756546897756 465.7538332938128L1441.4756546897756 465.7538332938128L1405.4888133873128 465.7538332938128Q1401.3660064617416 465.7538332938128 1399.5677608878218 464.4161140254093Q1397.7475854898303 463.07839475700575 1398.2081117953462 460.86348252571463L1398.2081117953462 460.86348252571463Q1398.8440766934395 458.9555878314342 1401.541445054319 457.55207909081406L1401.541445054319 457.55207909081406Q1403.9098660541154 456.2801492946271 1405.4888133873128 454.54769319292416Q1407.0677607205107 452.8152370912212 1408.16425192412 449.0213775267324L1408.16425192412 449.0213775267324L1422.2212691543932 403.38541363250664Q1422.528286691404 402.5959399659078 1422.528286691404 401.1705014012155L1422.528286691404 401.1705014012155Q1422.528286691404 399.43804529951257 1421.826532321094 398.4950628644084Q1421.1028481267117 397.5520804293043 1419.5239007935143 396.126641864612L1419.5239007935143 396.126641864612Q1417.9449534603164 394.85471206842504 1417.3309183862953 393.9117296333209Q1416.6949534882015 392.96874719821676 1417.1554797937174 391.38979986501914L1417.1554797937174 391.38979986501914Q1418.1203920528937 387.7494490690357 1427.1116199224916 384.98629123593986Q1436.102847792089 382.22313340284404 1445.9054791523577 382.22313340284404L1445.9054791523577 382.22313340284404Q1453.8002158183458 382.22313340284404 1458.3835490494334 386.5652385691375Q1462.9449524564488 390.90734373543097 1462.484426150933 398.6485716329138L1462.484426150933 398.6485716329138Q1468.9537242522288 389.32839640223335 1476.2124960201231 385.7757649025387Q1483.471267788018 382.22313340284404 1492.0019693520994 382.22313340284404L1492.0019693520994 382.22313340284404Q1501.6291621197906 382.22313340284404 1507.5502146192816 388.0783964301185Q1513.4712671187726 393.9117296333209 1513.4712671187726 403.2319048640013L1513.4712671187726 403.2319048640013Q1513.4712671187726 408.1222556320995 1511.8923197855752 412.8590976316924L1511.8923197855752 412.8590976316924ZM1613.2738964713058 356.49944976616604Q1618.3177560079093 356.49944976616604 1623.142317303791 358.6266427011684Q1627.9449487756006 360.7538356361707 1631.0370539697792 364.4599759043707Q1634.1072293398856 368.1661161725707 1634.1072293398856 372.4424318666476L1634.1072293398856 372.4424318666476Q1634.1072293398856 381.76260709732804 1621.4756506743047 381.76260709732804L1621.4756506743047 381.76260709732804Q1617.8572297023934 381.76260709732804 1615.8835455358967 381.1924316714511Q1613.9098613693996 380.64418606964637 1611.2124930085201 379.3941860975316L1611.2124930085201 379.3941860975316Q1610.7519667030042 380.4906773011411 1610.7519667030042 382.5520807639269L1610.7519667030042 382.5520807639269Q1610.7519667030042 385.0740105322286 1611.6072298418194 388.5389227356345Q1612.4844228047068 392.0257647631126 1613.7344227768222 395.0082208369304L1613.7344227768222 395.0082208369304Q1617.067756035795 399.92050142910074 1617.067756035795 406.6968170674072L1617.067756035795 406.6968170674072Q1617.067756035795 409.7012029652971 1616.278282369196 413.95558883530185L1616.278282369196 413.95558883530185Q1614.3703876749155 422.1792728623728 1607.9888088699086 428.95558850067926Q1601.585300240829 435.75383396305796 1591.5633706398385 439.6134829997633Q1581.541441038848 443.4950618605408 1569.5238974472886 443.4950618605408L1569.5238974472886 443.4950618605408Q1560.3791608091856 443.4950618605408 1552.3309153746923 442.22313206435376L1552.3309153746923 442.22313206435376Q1549.9624943748954 444.28453552713955 1549.9624943748954 447.2889214250295L1549.9624943748954 447.2889214250295Q1549.9624943748954 449.3283950637431 1551.8484592451036 450.66611433214666Q1553.7344241153123 452.02576342462237 1558.1642485778943 452.02576342462237L1558.1642485778943 452.02576342462237L1581.8484585758588 452.02576342462237Q1593.9975811118516 452.02576342462237 1600.79582657423 456.1924299983383Q1607.5940720366088 460.38102639612646 1607.5940720366088 468.1222542936093L1607.5940720366088 468.1222542936093Q1607.5940720366088 470.9731314229939 1606.6291597774325 473.95558749681163L1606.6291597774325 473.95558749681163Q1604.7431949072243 480.11786806109683 1598.0326687411343 485.4029556624944Q1591.3221425750444 490.70997308796416 1579.1730200390516 494.0213765228648Q1567.0019676789866 497.33277995776535 1549.6335470138129 497.33277995776535L1549.6335470138129 497.33277995776535Q1534.1730210429191 497.33277995776535 1523.4274072475469 494.6573414209583Q1512.6817934521737 491.95997306007894 1507.3967058507765 487.31085035677484Q1502.1116182493788 482.63979782939856 1502.1116182493788 476.95997339470154L1502.1116182493788 476.95997339470154Q1502.1116182493788 475.70997342258676 1502.7475831474721 473.1661138302128L1502.7475831474721 473.1661138302128Q1504.1730217121644 468.60471042319745 1509.129161952479 465.66611399752406Q1514.1072320168664 462.7494473959229 1525.4888107103325 461.80646496081874L1525.4888107103325 461.80646496081874Q1521.6949511458438 458.16611416483534 1521.6949511458438 453.1222546282318L1521.6949511458438 453.1222546282318Q1521.6949511458438 451.38979852652886 1522.1554774513597 449.4819038322484L1522.1554774513597 449.4819038322484Q1524.6993370437335 441.28014962924965 1537.001968348232 437.3327812962556L1537.001968348232 437.3327812962556Q1525.1598633492495 430.86348319495977 1525.1598633492495 418.38541329788404L1525.1598633492495 418.38541329788404Q1525.1598633492495 414.92050109447814 1526.1028457843536 411.12664152998946L1526.1028457843536 411.12664152998946Q1528.010740478634 402.90295750291847 1534.48003857993 396.1924313368286Q1540.9493366812258 389.4819051707386 1551.0589855785051 385.5345368377446Q1561.1686344757845 381.58716850475054 1573.1642482432721 381.58716850475054L1573.1642482432721 381.58716850475054Q1591.9581074731382 381.58716850475054 1602.6817914444387 386.4994490969209L1602.6817914444387 386.4994490969209Q1600.3133704446423 382.8590983009375 1598.9756511762384 378.6705019031494Q1597.637931907835 374.4819055053612 1597.637931907835 371.0169933019553L1597.637931907835 371.0169933019553Q1597.637931907835 365.00822150617546 1601.4975809445405 360.7538356361707Q1605.379159805318 356.49944976616604 1613.2738964713058 356.49944976616604L1613.2738964713058 356.49944976616604ZM1578.9975814464742 412.55208009468174Q1581.541441038848 404.4819048361161 1581.541441038848 400.2275189661114L1581.541441038848 400.2275189661114Q1581.541441038848 394.85471206842504 1576.9581078077604 394.85471206842504L1576.9581078077604 394.85471206842504Q1573.0107394747665 394.85471206842504 1570.0940728731653 398.73629092920254Q1567.1554764474918 402.5959399659078 1564.1730203736743 412.55208009468174L1564.1730203736743 412.55208009468174Q1561.6291607813005 420.75383429768056 1561.6291607813005 425.00822016768524L1561.6291607813005 425.00822016768524Q1561.6291607813005 430.22751829686626 1566.0589852438825 430.22751829686626L1566.0589852438825 430.22751829686626Q1570.0063535768768 430.22751829686626 1573.0107394747665 426.2801499638722Q1576.0151253726563 422.3327816308781 1578.9975814464742 412.55208009468174L1578.9975814464742 412.55208009468174ZM1562.747581808982 467.96874552510394L1547.594073375099 467.96874552510394Q1543.164248912517 467.96874552510394 1539.5238981165335 467.48628939551577L1539.5238981165335 467.48628939551577Q1537.6379332463252 469.8547103953122 1537.6379332463252 473.8020787283063L1537.6379332463252 473.8020787283063Q1537.7914420148309 477.7494470613003 1540.8835472090095 479.48190316300327Q1543.953722579116 481.23628908877845 1550.4230206804118 481.23628908877845L1550.4230206804118 481.23628908877845Q1558.3177573464 481.23628908877845 1563.2958274107868 478.867868088982Q1568.2738974751737 476.49944708918554 1568.2738974751737 472.06962262660335L1568.2738974751737 472.06962262660335Q1568.2738974751737 470.18365775639506 1566.8484589104814 469.06523672871344Q1565.4230203457892 467.96874552510394 1562.747581808982 467.96874552510394L1562.747581808982 467.96874552510394Z " fill="#b23b83" transform="matrix(0.5354606133185033,0,0,0.5354606133185033,0,73.85743410545493)"/></g></svg>